<svg xmlns="http://www.w3.org/2000/svg" width="40" height="40" viewBox="0 0 40 40"><defs><style>.a,.d{fill:none;}.a{stroke:#9c9c9c;}.b{fill:#9c9c9c;}.c{stroke:none;}</style></defs><g transform="translate(-1739 -439)"><g class="a" transform="translate(1739 439)"><circle class="c" cx="20" cy="20" r="20"/><circle class="d" cx="20" cy="20" r="19.5"/></g><g transform="translate(1751.001 451)"><path class="b" d="M11.668,0H4.33A4.336,4.336,0,0,0,0,4.331v7.338A4.336,4.336,0,0,0,4.33,16h7.338A4.336,4.336,0,0,0,16,11.669V4.331A4.336,4.336,0,0,0,11.668,0ZM8,12.375A4.375,4.375,0,1,1,12.374,8,4.38,4.38,0,0,1,8,12.375Zm4.479-7.718a1.293,1.293,0,1,1,1.293-1.293A1.294,1.294,0,0,1,12.479,4.657Zm0,0"/><path class="b" d="M149.457,146.02a3.437,3.437,0,1,0,3.437,3.437A3.441,3.441,0,0,0,149.457,146.02Zm0,0" transform="translate(-141.458 -141.457)"/><path class="b" d="M388.347,96.3a.355.355,0,1,0,.355.355A.355.355,0,0,0,388.347,96.3Zm0,0" transform="translate(-375.869 -93.291)"/></g></g></svg>