<svg xmlns="http://www.w3.org/2000/svg" width="40" height="40" viewBox="0 0 40 40"><defs><style>.a,.d{fill:none;}.a{stroke:#9c9c9c;}.b{fill:#9c9c9c;}.c{stroke:none;}</style></defs><g transform="translate(-1739 -491)"><g class="a" transform="translate(1739 491)"><circle class="c" cx="20" cy="20" r="20"/><circle class="d" cx="20" cy="20" r="19.5"/></g><g transform="translate(1751 503.668)"><path class="b" d="M1.94-.668A1.788,1.788,0,1,0,1.9,2.9h.022A1.788,1.788,0,1,0,1.94-.668Zm0,0"/><path class="b" d="M8.109,198.313h3.43v10.319H8.109Zm0,0" transform="translate(-7.907 -194.006)"/><path class="b" d="M227.736,188.625a4.3,4.3,0,0,0-3.091,1.739v-1.5h-3.43v10.319h3.43v-5.762a2.35,2.35,0,0,1,.113-.837,1.877,1.877,0,0,1,1.76-1.254c1.241,0,1.737.946,1.737,2.333v5.52h3.43v-5.917c0-3.17-1.692-4.644-3.949-4.644Zm0,0" transform="translate(-215.685 -184.561)"/></g></g></svg>