<svg xmlns="http://www.w3.org/2000/svg" width="40" height="40" viewBox="0 0 40 40"><defs><style>.a{fill:#656565;}</style></defs><path class="a" d="M37.628,16.676a17.656,17.656,0,0,0-35.257,0A3.521,3.521,0,0,0,0,20v7.031a3.52,3.52,0,0,0,3.516,3.516H9.375V17.656a10.625,10.625,0,0,1,21.25,0v12.89h2.142a3.521,3.521,0,0,1-3.314,2.344H24.688a5.922,5.922,0,0,0-5.859,5.938V40h2.344V38.828a3.6,3.6,0,0,1,3.516-3.594h4.766a5.869,5.869,0,0,0,5.741-4.687h1.29A3.52,3.52,0,0,0,40,27.031V20A3.521,3.521,0,0,0,37.628,16.676ZM7.031,28.2H3.516a1.173,1.173,0,0,1-1.172-1.172V20a1.173,1.173,0,0,1,1.172-1.172H7.031ZM20,4.688a13.041,13.041,0,0,0-12.916,11.8H4.732a15.313,15.313,0,0,1,30.536,0H32.916A13.041,13.041,0,0,0,20,4.688ZM37.656,27.031A1.173,1.173,0,0,1,36.484,28.2H32.969V18.828h3.516A1.173,1.173,0,0,1,37.656,20Z"/></svg>